<?xml version="1.0" encoding="utf-8"?>
<!-- Generator: Adobe Illustrator 26.3.1, SVG Export Plug-In . SVG Version: 6.00 Build 0)  -->
<svg version="1.1" id="logo_x5F_rood" xmlns="http://www.w3.org/2000/svg" xmlns:xlink="http://www.w3.org/1999/xlink" x="0px"
	 y="0px" viewBox="0 0 1280 305" style="enable-background:new 0 0 1280 305;" xml:space="preserve">
<style type="text/css">
	.st0{fill:#FFFFFF;}
</style>
<g>
	<path class="st0" d="M1280,109.6c-0.6,0.3-1.3,0.4-1.7,0.9c-6.2,6.9-13.9,8.5-23,8.2c-16.5-0.6-33-0.2-49.5-0.2c-1.8,0-3.6,0-5.6,0
		c-17.8,33.1-37.6,64.8-51.7,99.5c-3.2,7.9-5.4,16.4-6.9,24.8c-2.7,15.4,4.6,21.3,19.5,16.7c12.4-3.8,22.1-12,31.4-20.6
		c1.9-1.8,3.6-3.9,5.4-5.9c0.4,0.4,0.8,0.7,1.2,1.1c-4.1,4.5-8.2,8.9-12.9,14c6.7,0.9,8.3-5.8,12.9-7.5c-0.6,1-1.1,1.9-1.7,2.8
		c-0.8,1.1-1.6,2.2-2.5,3.1c-13,13.5-28.1,23.4-47.2,25.8c-3.6,0.5-7.4,0.5-10.9,0c-12.8-1.6-19.1-8.6-19.8-21.5
		c-0.6-10.4,1.1-20.5,5-30.2c0.6-1.5,1.2-3,1.2-4.9c-2.3,2-4.5,4.2-6.9,6.1c-6.3,4.9-12.7,9.7-19.1,14.4c-2,1.5-4.2,2.6-6.5,3.7
		c-11.8,5.4-19.5,0.2-17.9-12.6c0.8-6.6,3-13.1,4.6-19.7c-0.7,0.6-1.6,1.2-2.5,2.1c-9.6,9.9-19.2,19.9-28.8,29.7
		c-1.5,1.5-3.2,3.1-5.1,3.6c-9.8,2.9-15.7-2.5-12.4-12c3.8-11.1,9-21.7,13.8-32.4c1.7-3.7,3.9-7.2,5.8-10.8
		c-0.3-0.2-0.6-0.5-0.9-0.7c-1.6,1.7-3.1,3.5-4.7,5.2c-9.6,10.3-19.1,20.9-29.1,30.9c-7.2,7.2-15.8,12.7-25.6,16.1
		c-7.3,2.5-14.6,3.1-22.2,1.7c-4.8-0.9-8.7-3.2-11.7-7.1c-1.6-2.1-3-4.4-4.7-6.9c-4.6,1.9-9.3,3.9-14.1,5.6
		c-13.3,4.9-26.7,9.4-41.1,9.7c-4.3,0.1-8.7-0.2-12.9-1.2c-10.7-2.5-16.8-9.7-18-20.5c-0.2-1.5-0.2-3-0.3-5.3
		c-1.4,1.4-2.4,2.3-3.3,3.2c-6.8,6.9-14.1,13.2-23.3,16.7c-11.4,4.4-20.1-1.4-20.3-13.7c-0.2-7.9,1.6-15.5,5.5-22.5
		c1.6-2.9,3.4-5.7,5.7-9.6c-1.8,1.3-2.9,1.9-3.7,2.6c-14.5,13.3-28.5,27.1-40,43.1c-3.7,5.2-8.1,6.8-14.1,5.9
		c-5.5-0.9-7.5-3.2-5.9-8.5c1.7-6,3.8-12,6.2-17.8c4.8-11.3,10-22.4,14.7-33.9c-8.6,8.7-20.6,13.2-27.4,24.2
		c-7.9,12.7-18.6,23-32.3,29.6c-6.8,3.3-14,5.3-21.7,4.4c-13-1.5-20.7-11.9-18.3-24.6c0.1-0.5,0.2-1,0.3-1.5
		c5-24.8,33.3-53.3,57.8-58.1c1-0.2,2-0.4,3-0.5c18.2-1.9,27.5,8.4,23.6,26.3c-0.2,1.1-0.4,2.1-0.6,3.2c0.4,0.3,0.8,0.6,1.2,0.8
		c8.4-8.7,16.8-17.3,25.1-26.1c2.5-2.6,4.8-4.2,8.7-2.5c7.5,3.2,8.8,5.2,5.4,12.8c-4.1,9.2-8.9,18.2-13.9,28.3
		c1.9-1.9,3.2-3.1,4.5-4.4c13.3-13.6,27-26.7,43.9-35.8c3.3-1.8,7.1-3.2,10.7-3.5c8.7-0.7,12.6,5,8.6,12.6
		c-4.2,7.9-9.1,15.5-13.7,23.1c-3,5-6.3,9.8-9.1,14.8c-1.2,2.1-2.2,4.5-2.6,6.9c-1,6,3.5,10.3,9.3,8.7c3.3-0.9,6.9-2.4,9.1-4.7
		c4.9-5.3,9.4-11.1,13.4-17.2c7.4-11.3,15.1-22.4,26.5-30.1c10-6.8,20.7-12.3,33.2-12.1c3.9,0.1,7.8,1.7,12.6,2.8
		c6.9-12.2,14.4-25.6,22.4-39.7c-107.1,0-213.4,0-319.6,0c0-0.2,0-0.4,0-0.6c25.6-0.6,51.2-1.2,76.8-1.8c0-0.1,0-0.3,0-0.4
		c-10.1-0.6-20.2-1.1-30.3-1.7c0-0.2,0-0.4,0-0.7c9.5-0.3,18.9-0.7,28.4-0.8c81.6-0.8,163.3-1.5,244.9-2.2c3,0,4.8-0.9,6.2-3.7
		c7.7-14.7,15.5-29.3,23.3-44c0.2-0.4,0.6-0.7,1.6-2c-0.7,3.2-1.4,5.2-1.5,7.3c-0.1,2.7,0.5,5.5,0.5,8.2c0,1.2-0.3,2.5-0.8,3.6
		c-2.5,5.6-5.1,11.2-7.6,16.8c-0.7,1.4-1.3,2.9-1.1,4.8c4.8-7.6,9.7-15.1,14.5-22.7c0.4,0.2,0.8,0.4,1.2,0.6
		c-4.8,10-9.5,19.9-14.4,30.3c1.6,0.1,2.8,0.4,4.1,0.4c63.5-0.6,127-1.3,190.5-1.9c3.5,0,5.3-1.2,7.1-4.1
		c16.6-27.6,33.3-55.2,50-82.7c1.2-2,2.5-3.8,4.3-5.7c2.6,8.2,7.7,15.3,1.9,24.9c-12.2,20.1-23.1,41.1-34.5,61.7
		c-0.9,1.6-1.6,3.2-2.7,5.3c24.9,0,49.1,0,73.4,0C1280,108.3,1280,109,1280,109.6z M1178.9,118.5c-2.8,0-4.6,0-6.4,0
		c-61.8,0-123.6,0.1-185.5-0.1c-4.9,0-7.2,1.5-9.4,5.8c-14.6,27.6-29.4,55-44.4,82.4c-2.7,4.9-6,9.4-9.1,14.1c0.2,0.3,0.3,0.7,0.5,1
		c7.7-2.4,15.4-4.8,23.1-7.4c1-0.3,1.9-1.8,2.2-2.9c7-24.9,23.7-41.5,46-52.9c4.8-2.5,10.8-3.7,16.3-3.9c11-0.3,16.6,7.9,13.2,18.5
		c-0.7,2.2-1.6,4.5-3,6.2c-3.2,4-6.2,8.5-10.3,11.4c-10.7,7.6-21.9,14.4-32.9,21.5c-1.8,1.1-3.6,2.1-5.3,3c1.9,6.8,5.7,9.8,11.9,8.3
		c6-1.5,12.4-3.5,17.3-7.1c9.9-7.2,19.5-15.1,28.2-23.7c11.6-11.7,22.1-24.4,33.2-36.6c4.7-5.1,11.8-5.5,17.5-1.5
		c2.7,1.9,3.7,4.3,2,7.3c-1.7,3.2-3.5,6.4-5.4,9.5c-3.9,6.3-7.8,12.5-11.8,18.8c1.8-0.6,3-1.6,4.2-2.7c12.5-12.4,25-24.8,37.5-37.3
		c4.3-4.2,6.3-4.7,11-2.5c8.7,4.1,9.5,6.9,4.4,15c-7.5,12-15.1,23.9-22.4,35.9c-2.5,4.1-4.3,8.6-5.9,13.1c-0.8,2.1-0.9,4.6-0.7,6.9
		c0.3,3.9,2.7,5.4,6.2,3.6c3.2-1.6,6.6-3.5,9.1-6c8.1-8.1,16.2-16.3,23.6-25c11.6-13.4,19.3-29.4,28.2-44.5
		C1167.5,137.8,1172.9,128.6,1178.9,118.5z M885.1,216.5c0.7,1.2,1.6,4.3,3.6,6c2.6,2.2,6.3,1.4,8.8-0.7c3.7-3,7.5-6.2,10.3-10
		c7.3-10.4,14.2-21.2,20.9-32c0.9-1.5,0.7-4.7-0.3-6.3s-3.9-3.1-5.6-2.8c-3.2,0.4-6.4,1.9-9.1,3.6c-8.8,5.4-15.7,12.7-21.5,21.2
		C888.2,201.2,885.8,207.7,885.1,216.5z M749,177.7c0.3-6.8-2-8.5-7.3-6.2c-16.2,7.2-27.2,19.2-32.4,36.2c-0.7,2.3-1.1,4.9-1.1,7.3
		c0,4.9,3,7.2,7.5,5.4c4.4-1.8,8.9-4,12.4-7c9.7-8.4,16.2-19.2,19.9-31.5C748.6,180.2,748.9,178.4,749,177.7z M1006.3,172.3
		c-7.8-1.9-24.1,13.6-28.1,26.7C989.2,191.1,1000.3,184.7,1006.3,172.3z"/>
	<path class="st0" d="M0,208.3c2.2-7.8,3.9-15.7,6.8-23.3c9.5-24.9,24.9-46.1,42.8-65.6c37.5-40.9,81.4-72.8,133-93.9
		c16.1-6.6,32.8-11,50.5-10.6c4.3,0.1,8.7,0.6,12.9,1.5c22.2,5.2,32.8,22.5,27.5,44.6c-3.9,16.1-13.7,28.2-26.2,38.4
		c-16.7,13.6-36,22.5-56.5,29c-26.7,8.5-53.8,10.5-81.4,6c-2.1-0.3-4.1-0.9-6.1-2c9.3,0,18.6,0.5,27.9-0.1
		c32.2-1.9,62.6-10.2,90.4-27.1c9.4-5.8,18-12.6,24.9-21.3c4.6-5.8,8.2-12.1,9.8-19.4c3.8-16.4-5.5-29.5-22.3-31.8
		c-12.4-1.7-24.2,0.9-35.8,4.7C175.4,45,155,56.8,135.9,70.9c-29.8,22-55.8,47.8-77.4,77.9c-10.6,14.8-19.6,30.4-23.6,48.5
		c-7.7,35,18.8,53.2,46,51.4c20.6-1.4,39-9.4,56.8-19c25.1-13.5,47.3-30.8,68.8-49.3c8.7-7.5,17.7-14.6,27-21.3
		c8.4-6,17.9-8.7,28.4-6.8c9.7,1.8,15.5,8.3,15.9,18.2c0.3,7.2-1.9,13.8-5.2,20c-2.9,5.6-6.2,10.9-9.2,16.6
		c12.9-8.1,23.9-18.4,35.3-28.2c-3.9-8.7-2.5-13.9,5.7-18.3c4.5-2.4,9.4-4.3,14.4-5.4c9.3-2.1,12,1.1,8.9,9.9
		c6.2,0.8,11.8-0.4,17.3-3.2c4.2-2.2,8.8-3.7,13.5-4.8c3.3-0.8,6.9-0.1,8.6,3.4c1.8,3.6,0.2,6.9-2.6,9.4
		c-5.3,4.8-11.1,9.1-16.2,14.1c-7.5,7.5-14.9,15.2-21.7,23.3c-2.7,3.2-4.5,7.4-5.7,11.5c-1.8,5.8,0.9,8.8,7,7.8
		c4.8-0.8,9.9-2.1,14.1-4.5c19.6-11.4,35.4-26.8,48.9-44.7c-5.3-8-5.2-10.9,0.2-16.8c6.9-7.5,15.6-10,22.3-6.4
		c4.7,2.5,4,6.7,2.8,12.1c4.5-1.5,8.3-2.3,11.8-3.9c4.2-2,7.9-4.8,12-7.2c4.3-2.5,8.9-3.8,13.9-2.9c6.2,1.1,7.8,5.6,3.8,10.4
		c-7.4,8.6-15.1,16.9-22.1,25.7c-5.7,7.1-10.8,14.7-15.7,22.4c-2,3.1-4.6,7.1-2.1,10.6c2.5,3.6,6.8,1.7,10.2,0.9
		c6-1.4,11.9-3.2,17.7-5.2c1.3-0.5,2.9-2.3,3.1-3.7c1.2-8,4.7-14.9,9.5-21.1c7.9-10.1,16.7-19.4,27.3-26.8
		c7.9-5.5,16.5-9.3,26.4-9.2c6.7,0,12.2,2.4,15,8.8c2.9,6.7,2.1,13-2.9,18.5c-8,8.7-17.5,15.3-27.6,21.2c-6.6,3.8-13.4,7.3-20.1,11
		c1.9,7.6,6.8,11.4,14.3,10.7c11.4-1.1,21.5-5.9,30.6-12.4c20-14.4,37.6-31.3,51.8-51.4c4.8-6.7,8.6-6.9,13.9-0.4
		c6.5,7.9,9,17,7.8,27c-1.9,16.1-8.2,30.4-20.2,41.7c-6.2,5.8-13.3,10.2-22,10.5c-3.3,0.1-6.9-1-9.8-2.6c-3.2-1.7-4.5-5.2-4-9
		c0.6-4.6,4.6-6.5,8.2-3.6c3.2,2.5,5.9,1.9,8.5-0.3c9-7.4,19.8-24.5,12.7-42.2c-1.3,1.6-2.5,2.8-3.5,4.2
		c-12.3,15.1-25.4,29.5-42,40.2c-10.8,7-22.3,12.6-35.2,14.8c-8.8,1.4-17.4,0.7-25.1-4c-4.6-2.8-8.4-6.7-13.3-10.7
		c-6.9,2.6-14.9,6.2-23.3,8.7c-6.3,1.9-13,3.4-19.5,3.4c-12.9,0.1-20.2-10.5-15.4-22.6c2.6-6.7,7-12.8,11.2-18.7
		c4.1-5.8,8.9-11.2,14.1-17.7c-4.5,0-8.2-0.3-11.9,0.2c-1.4,0.2-2.8,2.1-3.8,3.5c-14.7,19-31.9,35.3-52.8,47.3
		c-12,6.9-24.8,11.5-39,10.2c-0.8-0.1-1.7,0-2.5-0.1c-13.8-1.6-19.3-11-12.1-22.8c5.4-8.9,12.6-16.7,19.2-24.7
		c3.2-3.9,7-7.5,11-11.6c-7.6-0.2-13.4,1-19.1,5.8c-14.7,12.3-29.8,24-45.3,35.2c-12.5,9.1-26.4,15.2-42.2,16.7
		c-15.9,1.6-30.8-9.1-26.8-27.2c0.2-0.7,0-1.6,0-3.1c-3.9,3-7.3,5.6-10.7,8.2c-22.9,17.2-46.7,33-73.4,44
		c-15.4,6.3-31.2,10.7-48,10.4c-15.7-0.3-29.6-5.7-41.5-16.1c-8.4-7.4-13.8-16.5-16.2-27.4c-0.2-1.1-0.7-2.1-1.1-3.2
		C0,220.3,0,214.3,0,208.3z M258,177.7c0.1-6.6-2.9-10.2-8.5-9.4c-4.4,0.7-9.1,2.3-12.7,5c-11.2,8.2-18.3,19.5-22.5,32.5
		c-1,3.1-1,6.9-0.3,10.2c1.1,5.8,6.2,8.5,11.7,6.3c3.3-1.3,6.6-3.2,9.3-5.5c10.9-9.5,17.9-21.6,22.2-35.3
		C257.8,180,257.9,178.4,258,177.7z M477.3,201.9c9.2-4.8,18.8-8.9,26.2-16.4c2-2,3.5-4.9,4.2-7.6c0.9-3.4-1.4-5.1-4.6-3.5
		C491,180.2,482.8,189.8,477.3,201.9z"/>
	<path class="st0" d="M552,305c0.9-2.6,1.4-5.4,2.6-7.8c19.6-38.2,39.3-76.4,58.9-114.7c2.1-4.1,3.9-8.4,5.9-12.7
		c-3.1-0.7-5.7-1.3-8.4-1.8c-0.1-0.4-0.2-0.8-0.4-1.3c1.3-1.3,2.4-3.2,4-3.8c5.6-2,11.2-3.9,17-5.2c4.1-0.9,6.4,2,7.8,5.1
		c6.7-2.3,13.1-5.1,19.8-6.7c4.7-1.1,9.9-1.3,14.8-0.7c9.3,1.1,14.3,7,15,16.4c0.5,7-1,13.6-4.2,19.7c-7.8,15.3-18.2,28.6-32.4,38.5
		c-7.3,5.1-15.2,9-24.3,9.4s-13.5-2.7-16.8-11.9c-1.1,1.7-1.9,3-2.7,4.3c-9.8,17.3-19.6,34.7-29.4,52c-2.3,4-3.6,9-9.4,9.8
		c-0.8,0.1-1.4,1.4-2.6,1.9c0.9-2.8,1.9-5.6,2.8-8.4c-5.5,6-8.7,13.7-16,17.9C553.3,305,552.7,305,552,305z M663.7,178.3
		c0-8.6-3.3-11-10.9-7.3c-3.7,1.8-7.2,4.3-10.1,7.1c-7.6,7.4-13,16.3-17.4,25.8c-1.4,3-2.2,6.3-2.6,9.5c-0.9,6.3,2.3,9.4,8.5,7.6
		c4-1.2,8-3.4,11.2-6.1c8.4-7.3,14.6-16.3,18.8-26.6C662.3,185.2,662.8,181.7,663.7,178.3z"/>
	<path class="st0" d="M479,0c0.4,3.5,0.5,7,1.3,10.4c1,4.2-0.1,7.8-2.3,11.3c-16.4,26.2-32.7,52.4-49,78.6c-0.2,0.3-0.2,0.6-0.8,2.2
		c6.4-2,12.2-3.6,17.8-5.6c0.9-0.3,1.3-2.2,1.7-3.4c6.8-20.2,21.6-32.5,40.7-40.5c4.5-1.9,9.4-2,14.2-0.2c4.6,1.7,6,3.8,5.6,8.7
		c-0.4,5.2-3,9.4-6.3,13.2c-7.3,8.5-16.9,13.8-26.6,19c-3.3,1.8-6.7,3.5-10,5.2c1.7,6.2,4.3,8.5,10.2,8.6
		C486.7,108,496,102.9,505,97c1.1-0.7,2.1-1.5,3.1-2.3c0.2,0.2,0.4,0.5,0.7,0.7c-2.5,2.5-4.9,4.9-7.5,7.5c0.7-0.1,1.5-0.2,2.4-0.3
		c-0.7,4.9-4.3,7.2-8.2,9.3c-8.1,4.2-16.6,6.7-25.7,7.2c-10.6,0.6-17.3-2.7-23.3-11.7c-5.5,1.9-11,4.3-16.8,5.8
		c-9.8,2.4-19.8,4.3-29.7,6.3c-1.4,0.3-3,0.1-4.5,0C380.7,119,373.7,109,379,95.1c5.4-14.1,15.2-25,28.1-32.7c6-3.6,13-5.7,19.8-7.8
		c4.7-1.5,9.5-0.8,13.6,3.6c12.7-19.6,25.3-39,37.8-58.3C478.3,0,478.7,0,479,0z M402,105.5c4.3,0.1,7.1-1.3,10.3-5.9
		c6-8.5,11.8-17.2,17.5-25.9c2.2-3.3,1-5.8-3.1-5.8c-2.2,0-4.7,0.5-6.7,1.4c-9.3,4.5-17.2,10.6-22.2,19.9c-1.3,2.5-2.4,5.1-3,7.8
		C393.7,102.7,396.1,105.4,402,105.5z M494.4,65.9c-8.5-1.1-22.9,10.6-26.3,21.2C477.9,80.8,488,76.2,494.4,65.9z"/>
	<path class="st0" d="M0,51.8C2,45.5,3.7,39.2,6.1,33c2.2-5.6,5.3-10.7,10.5-14.2c4.7-3.2,8.8-3.6,11.5-1.1s2.6,6.6-0.5,11.4
		c-1.1,1.7-2.4,3.2-3.7,4.6C8.6,49.6,6.3,70.8,18.1,89.4c2.9,4.5,6.4,8.6,9.6,12.9c-0.2,0.3-0.4,0.5-0.7,0.8
		c-3.7-3.2-7.5-6.2-11-9.5C8,85.5,2.4,76,0.8,64.6C0.7,64,0.3,63.4,0,62.8C0,59.1,0,55.5,0,51.8z"/>
</g>
</svg>
